<svg width="510" height="167" viewBox="0 0 510 167" fill="none" xmlns="http://www.w3.org/2000/svg">
<path fill-rule="evenodd" clip-rule="evenodd" d="M510 139.708C499.455 141.39 488.562 145.655 477.313 152.536C460.073 163.599 443.191 168.179 426.698 166.154C410.213 164.13 394.254 155.523 378.821 140.469C364.184 126.735 348.892 118.94 332.939 116.981C316.984 115.022 300.257 118.887 282.73 128.676L282.723 128.68L282.715 128.684C264.327 138.551 246.886 142.524 230.421 140.502C229.043 140.333 227.673 140.122 226.311 139.869C215.05 152.434 202.763 159.036 189.417 159.503C168.709 160.226 145.935 146.133 121.103 117.759C101.313 125.949 81.5873 126.875 61.9587 120.483C57.9487 123.347 54.021 126.572 50.175 130.157L50.1298 130.199L50.0797 130.236C31.8738 143.421 15.1702 152.142 0 156.311V154.236C14.6779 150.112 30.9535 141.612 48.8566 128.652C52.3812 125.369 55.9756 122.383 59.6393 119.694C56.9965 118.755 54.3553 117.684 51.7161 116.48L51.6899 116.468L51.6646 116.454C51.553 116.396 51.4416 116.337 51.3301 116.279C42.9362 117.674 35.1957 117.942 28.1131 117.073C17.7909 115.805 8.89612 112.124 1.44379 106.043C1.3031 106.065 1.16248 106.086 1.02191 106.109C0.680868 106.163 0.34023 106.219 0 106.279V102.112C0.666066 102.742 1.34528 103.351 2.03766 103.937C17.7538 101.772 34.3035 105.222 51.658 114.195C62.3694 112.346 74.2285 108.631 87.244 103.026C91.7448 100.297 96.2013 97.9714 100.613 96.0508C81.8158 79.556 63.4291 71.726 45.4461 72.3539C30.1606 72.8877 15.0104 79.5379 0 92.4314V89.8116C14.8453 77.4174 29.9693 70.8932 45.3763 70.3552C64.2691 69.6954 83.3652 78.0447 102.658 95.1886C115.07 90.1224 127.126 88.2845 138.814 89.7197C144.418 90.4078 149.922 91.8463 155.326 94.0301C167.943 85.0029 181.131 79.3844 194.887 77.2056C209.799 74.8439 225.324 76.5324 241.448 82.2345C253.678 65.4712 267.514 55.2197 282.982 51.6488C287.297 50.6523 291.727 50.1791 296.27 50.2256C301.946 47.7111 307.68 46.3463 313.474 46.1439C325.574 45.7214 337.768 50.3749 350.062 59.9863C361.73 48.7274 374.182 42.0044 387.423 39.9072C400.233 37.8783 413.679 40.1956 427.74 46.7799C428.698 44.8855 429.629 42.9072 430.53 40.8444L430.544 40.8111L430.561 40.779C442.277 18.5236 456.252 5.32417 472.572 1.55624C484.055 -1.09484 496.541 0.959685 510 7.58886V9.82339C496.495 2.98849 484.18 0.92903 473.022 3.50498C457.521 7.08368 443.934 19.6831 432.348 41.6781C431.443 43.747 430.508 45.7364 429.543 47.6459C432.934 49.3155 436.361 51.2312 439.823 53.3921C456.934 63.4133 473.398 67.1126 489.25 64.602C496.262 63.4915 503.178 61.1621 510 57.6028V59.8512C503.304 63.2347 496.492 65.4799 489.563 66.5773C473.154 69.1762 456.221 65.3166 438.8 55.1105L438.787 55.1033L438.775 55.0959C435.349 52.9565 431.965 51.0656 428.624 49.4223C419.561 66.5344 407.917 76.8707 393.623 80.1708C386.351 81.8497 378.456 81.6919 369.945 79.729C374.402 85.0838 378.873 91.0708 383.357 97.6845L383.364 97.6947C407.694 134.551 430.784 152.154 452.589 151.393C472.269 150.706 491.438 135.036 510 103.711V107.586C491.85 137.217 472.765 152.69 452.659 153.392C429.696 154.194 406.057 135.7 381.697 98.8006C376.626 91.3215 371.595 84.6822 366.604 78.8748C359.501 76.8838 351.986 73.6842 344.064 69.2932C343.816 69.5837 343.567 69.8765 343.319 70.1716C333.007 86.3138 319.627 95.7605 303.184 98.3647C289.68 100.504 274.209 98.0108 256.803 90.9825C254.232 94.8548 251.668 98.9931 249.109 103.399C242.484 117.656 235.401 129.244 227.848 138.109C228.784 138.266 229.722 138.402 230.664 138.517C246.62 140.476 263.642 136.647 281.761 126.926C299.567 116.984 316.717 112.974 333.183 114.996C349.651 117.018 365.323 125.059 380.196 139.017L380.203 139.024L380.21 139.03C395.429 153.878 411.007 162.212 426.942 164.169C442.87 166.124 459.292 161.725 476.241 150.848L476.25 150.842L476.26 150.836C487.801 143.775 499.05 139.379 510 137.683V139.708ZM28.3568 115.087C19.1127 113.952 11.0737 110.822 4.22742 105.683C18.1404 104.189 32.8104 107.18 48.2587 114.724C41.0873 115.718 34.4543 115.836 28.3568 115.087ZM61.6299 118.267C59.3461 117.495 57.0641 116.622 54.7835 115.648C62.3296 114.151 70.3818 111.781 78.9375 108.546C73.0087 111.1 67.2391 114.34 61.6299 118.267ZM119.72 116.167C101.031 123.755 82.4775 124.698 64.0308 119.041C77.912 109.622 92.7655 104.464 108.607 103.563C110.121 105.08 111.638 106.653 113.158 108.282C115.361 111.018 117.548 113.647 119.72 116.167ZM189.347 157.504C169.685 158.19 147.586 144.843 123.04 116.935C128.958 114.344 134.881 111.105 140.809 107.218C142.082 107.563 143.361 107.932 144.646 108.324C160.313 114.719 174.341 118.254 186.709 118.876C198.429 129.633 210.871 136.493 224.032 139.406C213.262 151.094 201.69 157.073 189.347 157.504ZM121.661 115.355C127.155 112.99 132.661 110.051 138.179 106.537C128.929 104.253 119.973 103.224 111.308 103.451C112.42 104.587 113.532 105.751 114.645 106.944L114.67 106.971L114.693 106.999C117.037 109.912 119.36 112.697 121.661 115.355ZM145.274 106.424C144.514 106.192 143.756 105.968 143 105.752C145.177 104.267 147.353 102.694 149.531 101.035L149.548 101.022L149.564 101.009C151.56 99.3499 153.57 97.7821 155.593 96.3049C165.436 100.468 174.992 107.209 184.263 116.564L184.269 116.57L184.427 116.723C172.931 115.808 159.915 112.4 145.36 106.455L145.317 106.437L145.274 106.424ZM148.302 99.4566C149.995 98.0501 151.699 96.707 153.414 95.4274C148.536 93.5604 143.588 92.3209 138.571 91.7048C127.555 90.3523 116.139 91.9966 104.311 96.6791C106.003 98.2254 107.696 99.8393 109.39 101.52C119.37 101.053 129.727 102.231 140.457 105.054C143.069 103.317 145.684 101.451 148.302 99.4566ZM185.676 115.149C176.609 106.001 167.214 99.257 157.492 94.9477C169.582 86.4939 182.15 81.2479 195.2 79.181C209.57 76.9051 224.576 78.4756 240.234 83.9279C240.038 84.2053 239.843 84.4845 239.648 84.7653L239.6 84.8345L239.564 84.9107C231.665 101.76 219.929 111.897 204.362 115.49C199.192 116.684 193.582 117.16 187.529 116.911C186.91 116.335 186.292 115.748 185.676 115.149ZM241.339 85.8364C241.622 85.4297 241.905 85.0268 242.189 84.6277C243.227 85.0093 244.268 85.4078 245.312 85.8232C248.576 87.4293 251.778 88.8907 254.918 90.2069C252.385 94.0368 249.865 98.1129 247.357 102.434L247.334 102.473L247.315 102.515C240.487 117.216 233.236 128.92 225.573 137.688C213.047 135.142 201.127 128.919 189.807 118.971C195.132 119.028 200.135 118.519 204.812 117.439C221.051 113.69 233.225 103.099 241.339 85.8364ZM302.872 96.3893C289.93 98.4391 274.963 96.1023 257.941 89.2849C270.723 70.4311 283.646 58.1386 296.69 52.2322C308.685 52.4462 321.596 56.3944 335.444 64.1486C337.758 65.6242 340.039 67.0058 342.289 68.2929C342.107 68.5058 341.927 68.7199 341.746 68.9351L341.704 68.9853L341.668 69.0405C331.605 84.8192 318.675 93.8864 302.872 96.3893ZM364.102 76.0293C358.19 74.1129 351.959 71.3567 345.407 67.7503C346.992 65.9598 348.589 64.2607 350.2 62.6527C354.798 66.3849 359.432 70.8416 364.102 76.0293ZM343.622 66.751C345.273 64.8723 346.94 63.0888 348.624 61.4008C336.685 52.1236 324.99 47.743 313.544 48.1427C309.395 48.2876 305.257 49.0614 301.131 50.4696C312.257 51.4649 324.034 55.464 336.447 62.4176L336.472 62.4316L336.496 62.447C338.911 63.9882 341.287 65.4227 343.622 66.751ZM367.72 77.1081C362.34 70.8931 356.98 65.6021 351.638 61.245C363.023 50.3152 375.058 43.8906 387.736 41.8826C400.047 39.9327 413.068 42.1312 426.819 48.5569C417.939 65.2973 406.7 75.0992 393.173 78.2221C385.505 79.9925 377.025 79.6354 367.72 77.1081ZM246.16 84.0116C249.529 85.6703 252.826 87.1704 256.05 88.5124C267.77 71.1499 279.747 59.0492 291.996 52.342C289.085 52.5324 286.23 52.9513 283.431 53.5975C268.708 56.9967 255.358 66.7248 243.406 82.9458C244.299 83.2783 245.192 83.6229 246.088 83.9798L246.125 83.9943L246.16 84.0116ZM84.1801 106.482C91.4569 103.881 98.9659 102.282 106.706 101.686C105.222 100.244 103.741 98.8546 102.262 97.519C97.6447 99.476 92.9648 101.893 88.2222 104.772L88.1628 104.808L88.0991 104.835C86.7818 105.403 85.4754 105.952 84.1801 106.482Z" fill="url(#paint0_linear_19_38)"/>
<defs>
<linearGradient id="paint0_linear_19_38" x1="119" y1="-41.5" x2="323.5" y2="167" gradientUnits="userSpaceOnUse">
<stop stop-color="#32B83F"/>
<stop offset="1" stop-color="#32B83F" stop-opacity="0"/>
</linearGradient>
</defs>
</svg>
